<svg width="30" height="30" viewBox="0 0 30 30" fill="none" xmlns="http://www.w3.org/2000/svg">
<path d="M27.4434 0.264871C27.4434 0.264871 30.2183 -1.0337 29.9862 2.11972C29.9098 3.41829 29.2162 7.96369 28.6762 12.8794L26.8263 27.4422C26.8263 27.4422 26.672 29.5756 25.2841 29.9467C23.897 30.317 21.8156 28.6482 21.4299 28.277C21.1213 27.9985 15.6486 23.8242 13.7214 21.7842C13.1815 21.2271 12.5643 20.1145 13.7986 18.8159L21.892 9.53997C22.817 8.42741 23.742 5.83028 19.8878 8.98369L9.09508 17.7951C9.09508 17.7951 7.86153 18.7234 5.54942 17.8885L0.53806 16.0328C0.53806 16.0328 -1.31191 14.6417 1.84875 13.2505C9.55793 8.89112 19.0399 4.43914 27.442 0.264871H27.4434Z" fill="black"/>
</svg>
